<svg width="324" height="304" viewBox="0 0 324 304" fill="none" xmlns="http://www.w3.org/2000/svg">
<path fill-rule="evenodd" clip-rule="evenodd" d="M152 36.2174C137.323 51.014 128.257 71.3839 128.257 93.8713C128.257 116.359 137.323 136.729 152 151.525C137.166 166.481 116.6 175.743 93.8713 175.743C48.6551 175.743 12 139.088 12 93.8713C12 48.6551 48.6551 12 93.8713 12C116.6 12 137.166 21.2619 152 36.2174Z" fill="black"/>
<path fill-rule="evenodd" clip-rule="evenodd" d="M93.8713 24C55.2825 24 24 55.2825 24 93.8713C24 132.46 55.2825 163.743 93.8713 163.743C109.295 163.743 123.539 158.755 135.099 150.291C123.276 134.589 116.257 115.042 116.257 93.8713C116.257 72.7005 123.276 53.1534 135.099 37.4519C123.539 28.9872 109.295 24 93.8713 24ZM0 93.8713C0 42.0276 42.0276 0 93.8713 0C119.929 0 143.525 10.6328 160.52 27.7668L168.902 36.2174L160.52 44.668C147.982 57.3087 140.257 74.6763 140.257 93.8713C140.257 113.066 147.982 130.434 160.52 143.075L168.902 151.525L160.52 159.976C143.525 177.11 119.929 187.743 93.8713 187.743C42.0276 187.743 0 145.715 0 93.8713Z" fill="black"/>
<path fill-rule="evenodd" clip-rule="evenodd" d="M267.781 152C282.737 137.166 291.999 116.6 291.999 93.8713C291.999 48.6551 255.343 12 210.127 12C164.911 12 128.256 48.6551 128.256 93.8713C128.256 116.6 137.518 137.166 152.473 152C167.27 137.323 187.64 128.257 210.127 128.257C232.615 128.257 252.985 137.323 267.781 152Z" fill="black"/>
<path fill-rule="evenodd" clip-rule="evenodd" d="M210.127 24C171.538 24 140.256 55.2825 140.256 93.8713C140.256 109.295 145.243 123.539 153.708 135.099C169.409 123.276 188.956 116.257 210.127 116.257C231.298 116.257 250.845 123.276 266.547 135.099C275.011 123.539 279.999 109.295 279.999 93.8713C279.999 55.2825 248.716 24 210.127 24ZM116.256 93.8713C116.256 42.0276 158.283 0 210.127 0C261.971 0 303.999 42.0276 303.999 93.8713C303.999 119.929 293.366 143.525 276.232 160.52L267.781 168.902L259.33 160.52C246.69 147.982 229.322 140.257 210.127 140.257C190.932 140.257 173.565 147.982 160.924 160.52L152.473 168.902L144.023 160.52C126.889 143.525 116.256 119.929 116.256 93.8713Z" fill="black"/>
<path fill-rule="evenodd" clip-rule="evenodd" d="M36.2174 152C21.2619 166.834 12 187.4 12 210.129C12 255.345 48.655 292 93.8713 292C139.088 292 175.743 255.345 175.743 210.129C175.743 187.4 166.481 166.834 151.525 152C136.729 166.677 116.359 175.743 93.8713 175.743C71.3839 175.743 51.014 166.677 36.2174 152Z" fill="black"/>
<path fill-rule="evenodd" clip-rule="evenodd" d="M151.525 135.098L159.976 143.48C177.11 160.475 187.743 184.071 187.743 210.128C187.743 261.972 145.715 303.999 93.8713 303.999C42.0276 303.999 0 261.972 0 210.128C0 184.071 10.6328 160.475 27.7668 143.48L36.2174 135.098L44.668 143.48C57.3087 156.018 74.6763 163.742 93.8713 163.742C113.066 163.742 130.434 156.018 143.075 143.48L151.525 135.098ZM37.4519 168.901C28.9872 180.461 24 194.705 24 210.128C24 248.717 55.2825 279.999 93.8713 279.999C132.46 279.999 163.743 248.717 163.743 210.128C163.743 194.705 158.755 180.461 150.291 168.901C134.589 180.723 115.042 187.742 93.8713 187.742C72.7005 187.742 53.1534 180.723 37.4519 168.901Z" fill="black"/>
<path fill-rule="evenodd" clip-rule="evenodd" d="M152 267.781C166.677 252.985 175.743 232.615 175.743 210.127C175.743 187.64 166.677 167.27 152 152.473C166.834 137.518 187.4 128.256 210.129 128.256C255.345 128.256 292 164.911 292 210.127C292 255.343 255.345 291.999 210.129 291.999C187.4 291.999 166.834 282.737 152 267.781Z" fill="black"/>
<path fill-rule="evenodd" clip-rule="evenodd" d="M168.902 153.708C180.724 169.409 187.743 188.956 187.743 210.127C187.743 231.298 180.724 250.845 168.902 266.547C180.462 275.011 194.706 279.999 210.129 279.999C248.718 279.999 280 248.716 280 210.127C280 171.538 248.718 140.256 210.129 140.256C194.706 140.256 180.462 145.243 168.902 153.708ZM143.481 144.023C160.476 126.889 184.072 116.256 210.129 116.256C261.973 116.256 304 158.283 304 210.127C304 261.971 261.973 303.999 210.129 303.999C184.072 303.999 160.476 293.366 143.481 276.232L135.099 267.781L143.481 259.33C156.019 246.69 163.743 229.322 163.743 210.127C163.743 190.932 156.019 173.565 143.481 160.924L135.099 152.473L143.481 144.023Z" fill="black"/>
<path fill-rule="evenodd" clip-rule="evenodd" d="M172 36.2174C157.323 51.014 148.257 71.3839 148.257 93.8713C148.257 116.359 157.323 136.729 172 151.525C157.166 166.481 136.6 175.743 113.871 175.743C68.6551 175.743 32 139.088 32 93.8713C32 48.6551 68.6551 12 113.871 12C136.6 12 157.166 21.2619 172 36.2174Z" fill="#7183BE"/>
<path fill-rule="evenodd" clip-rule="evenodd" d="M113.871 24C75.2825 24 44 55.2825 44 93.8713C44 132.46 75.2825 163.743 113.871 163.743C129.295 163.743 143.539 158.755 155.099 150.291C143.276 134.589 136.257 115.042 136.257 93.8713C136.257 72.7005 143.276 53.1534 155.099 37.4519C143.539 28.9872 129.295 24 113.871 24ZM20 93.8713C20 42.0276 62.0276 0 113.871 0C139.929 0 163.525 10.6328 180.52 27.7668L188.902 36.2174L180.52 44.668C167.982 57.3087 160.257 74.6763 160.257 93.8713C160.257 113.066 167.982 130.434 180.52 143.075L188.902 151.525L180.52 159.976C163.525 177.11 139.929 187.743 113.871 187.743C62.0276 187.743 20 145.715 20 93.8713Z" fill="black"/>
<path fill-rule="evenodd" clip-rule="evenodd" d="M287.781 152C302.737 137.166 311.999 116.6 311.999 93.8713C311.999 48.6551 275.343 12 230.127 12C184.911 12 148.256 48.6551 148.256 93.8713C148.256 116.6 157.518 137.166 172.473 152C187.27 137.323 207.64 128.257 230.127 128.257C252.615 128.257 272.985 137.323 287.781 152Z" fill="#61AC6B"/>
<path fill-rule="evenodd" clip-rule="evenodd" d="M230.127 24C191.538 24 160.256 55.2825 160.256 93.8713C160.256 109.295 165.243 123.539 173.708 135.099C189.409 123.276 208.956 116.257 230.127 116.257C251.298 116.257 270.845 123.276 286.547 135.099C295.011 123.539 299.999 109.295 299.999 93.8713C299.999 55.2825 268.716 24 230.127 24ZM136.256 93.8713C136.256 42.0276 178.283 0 230.127 0C281.971 0 323.999 42.0276 323.999 93.8713C323.999 119.929 313.366 143.525 296.232 160.52L287.781 168.902L279.33 160.52C266.69 147.982 249.322 140.257 230.127 140.257C210.932 140.257 193.565 147.982 180.924 160.52L172.473 168.902L164.023 160.52C146.889 143.525 136.256 119.929 136.256 93.8713Z" fill="black"/>
<path fill-rule="evenodd" clip-rule="evenodd" d="M56.2174 152C41.2619 166.834 32 187.4 32 210.129C32 255.345 68.655 292 113.871 292C159.088 292 195.743 255.345 195.743 210.129C195.743 187.4 186.481 166.834 171.525 152C156.729 166.677 136.359 175.743 113.871 175.743C91.3839 175.743 71.014 166.677 56.2174 152Z" fill="#D5635B"/>
<path fill-rule="evenodd" clip-rule="evenodd" d="M171.525 135.098L179.976 143.48C197.11 160.475 207.743 184.071 207.743 210.128C207.743 261.972 165.715 303.999 113.871 303.999C62.0276 303.999 20 261.972 20 210.128C20 184.071 30.6328 160.475 47.7668 143.48L56.2174 135.098L64.668 143.48C77.3087 156.018 94.6763 163.742 113.871 163.742C133.066 163.742 150.434 156.018 163.075 143.48L171.525 135.098ZM57.4519 168.901C48.9872 180.461 44 194.705 44 210.128C44 248.717 75.2825 279.999 113.871 279.999C152.46 279.999 183.743 248.717 183.743 210.128C183.743 194.705 178.755 180.461 170.291 168.901C154.589 180.723 135.042 187.742 113.871 187.742C92.7005 187.742 73.1534 180.723 57.4519 168.901Z" fill="black"/>
<path fill-rule="evenodd" clip-rule="evenodd" d="M172 267.781C186.677 252.985 195.743 232.615 195.743 210.127C195.743 187.64 186.677 167.27 172 152.473C186.834 137.518 207.4 128.256 230.129 128.256C275.345 128.256 312 164.911 312 210.127C312 255.343 275.345 291.999 230.129 291.999C207.4 291.999 186.834 282.737 172 267.781Z" fill="#A87AB5"/>
<path fill-rule="evenodd" clip-rule="evenodd" d="M188.902 153.708C200.724 169.409 207.743 188.956 207.743 210.127C207.743 231.298 200.724 250.845 188.902 266.547C200.462 275.011 214.706 279.999 230.129 279.999C268.718 279.999 300 248.716 300 210.127C300 171.538 268.718 140.256 230.129 140.256C214.706 140.256 200.462 145.243 188.902 153.708ZM163.481 144.023C180.476 126.889 204.072 116.256 230.129 116.256C281.973 116.256 324 158.283 324 210.127C324 261.971 281.973 303.999 230.129 303.999C204.072 303.999 180.476 293.366 163.481 276.232L155.099 267.781L163.481 259.33C176.019 246.69 183.743 229.322 183.743 210.127C183.743 190.932 176.019 173.565 163.481 160.924L155.099 152.473L163.481 144.023Z" fill="black"/>
</svg>
