<svg width="500" height="500" viewBox="0 0 500 500" fill="none" xmlns="http://www.w3.org/2000/svg">
<rect width="500" height="500" rx="250" fill="white"/>
<path fill-rule="evenodd" clip-rule="evenodd" d="M240 134.217C225.323 149.014 216.257 169.384 216.257 191.871C216.257 214.359 225.323 234.729 240 249.525C225.166 264.481 204.6 273.743 181.871 273.743C136.655 273.743 100 237.088 100 191.871C100 146.655 136.655 110 181.871 110C204.6 110 225.166 119.262 240 134.217Z" fill="black"/>
<path fill-rule="evenodd" clip-rule="evenodd" d="M181.871 122C143.282 122 112 153.282 112 191.871C112 230.46 143.282 261.743 181.871 261.743C197.295 261.743 211.539 256.755 223.099 248.291C211.276 232.589 204.257 213.042 204.257 191.871C204.257 170.701 211.276 151.153 223.099 135.452C211.539 126.987 197.295 122 181.871 122ZM88 191.871C88 140.028 130.028 98 181.871 98C207.929 98 231.525 108.633 248.52 125.767L256.902 134.217L248.52 142.668C235.982 155.309 228.257 172.676 228.257 191.871C228.257 211.066 235.982 228.434 248.52 241.075L256.902 249.525L248.52 257.976C231.525 275.11 207.929 285.743 181.871 285.743C130.028 285.743 88 243.715 88 191.871Z" fill="black"/>
<path fill-rule="evenodd" clip-rule="evenodd" d="M355.781 250C370.737 235.166 379.999 214.6 379.999 191.871C379.999 146.655 343.343 110 298.127 110C252.911 110 216.256 146.655 216.256 191.871C216.256 214.6 225.518 235.166 240.473 250C255.27 235.323 275.64 226.257 298.127 226.257C320.615 226.257 340.985 235.323 355.781 250Z" fill="black"/>
<path fill-rule="evenodd" clip-rule="evenodd" d="M298.127 122C259.538 122 228.256 153.282 228.256 191.871C228.256 207.295 233.243 221.539 241.708 233.099C257.409 221.276 276.956 214.257 298.127 214.257C319.298 214.257 338.845 221.276 354.547 233.099C363.011 221.539 367.999 207.295 367.999 191.871C367.999 153.282 336.716 122 298.127 122ZM204.256 191.871C204.256 140.028 246.283 98 298.127 98C349.971 98 391.999 140.028 391.999 191.871C391.999 217.929 381.366 241.525 364.232 258.52L355.781 266.902L347.33 258.52C334.69 245.982 317.322 238.257 298.127 238.257C278.932 238.257 261.565 245.982 248.924 258.52L240.473 266.902L232.023 258.52C214.889 241.525 204.256 217.929 204.256 191.871Z" fill="black"/>
<path fill-rule="evenodd" clip-rule="evenodd" d="M124.217 250C109.262 264.834 100 285.4 100 308.129C100 353.345 136.655 390 181.871 390C227.088 390 263.743 353.345 263.743 308.129C263.743 285.4 254.481 264.834 239.525 250C224.729 264.677 204.359 273.743 181.871 273.743C159.384 273.743 139.014 264.677 124.217 250Z" fill="black"/>
<path fill-rule="evenodd" clip-rule="evenodd" d="M239.525 233.098L247.976 241.48C265.11 258.475 275.743 282.071 275.743 308.128C275.743 359.972 233.715 401.999 181.871 401.999C130.028 401.999 88 359.972 88 308.128C88 282.071 98.6328 258.475 115.767 241.48L124.217 233.098L132.668 241.48C145.309 254.018 162.676 261.742 181.871 261.742C201.066 261.742 218.434 254.018 231.075 241.48L239.525 233.098ZM125.452 266.901C116.987 278.461 112 292.705 112 308.128C112 346.717 143.282 377.999 181.871 377.999C220.46 377.999 251.743 346.717 251.743 308.128C251.743 292.705 246.755 278.461 238.291 266.901C222.589 278.723 203.042 285.742 181.871 285.742C160.701 285.742 141.153 278.723 125.452 266.901Z" fill="black"/>
<path fill-rule="evenodd" clip-rule="evenodd" d="M240 365.781C254.677 350.985 263.743 330.615 263.743 308.127C263.743 285.64 254.677 265.27 240 250.473C254.834 235.518 275.4 226.256 298.129 226.256C343.345 226.256 380 262.911 380 308.127C380 353.343 343.345 389.999 298.129 389.999C275.4 389.999 254.834 380.737 240 365.781Z" fill="black"/>
<path fill-rule="evenodd" clip-rule="evenodd" d="M256.902 251.708C268.724 267.409 275.743 286.956 275.743 308.127C275.743 329.298 268.724 348.845 256.902 364.547C268.462 373.011 282.706 377.999 298.129 377.999C336.718 377.999 368 346.716 368 308.127C368 269.538 336.718 238.256 298.129 238.256C282.706 238.256 268.462 243.243 256.902 251.708ZM231.481 242.023C248.476 224.889 272.072 214.256 298.129 214.256C349.973 214.256 392 256.283 392 308.127C392 359.971 349.973 401.999 298.129 401.999C272.072 401.999 248.476 391.366 231.481 374.232L223.099 365.781L231.481 357.33C244.019 344.69 251.743 327.322 251.743 308.127C251.743 288.932 244.019 271.565 231.481 258.924L223.099 250.473L231.481 242.023Z" fill="black"/>
<path fill-rule="evenodd" clip-rule="evenodd" d="M260 134.217C245.323 149.014 236.257 169.384 236.257 191.871C236.257 214.359 245.323 234.729 260 249.525C245.166 264.481 224.6 273.743 201.871 273.743C156.655 273.743 120 237.088 120 191.871C120 146.655 156.655 110 201.871 110C224.6 110 245.166 119.262 260 134.217Z" fill="#7183BE"/>
<path fill-rule="evenodd" clip-rule="evenodd" d="M201.871 122C163.282 122 132 153.282 132 191.871C132 230.46 163.282 261.743 201.871 261.743C217.295 261.743 231.539 256.755 243.099 248.291C231.276 232.589 224.257 213.042 224.257 191.871C224.257 170.701 231.276 151.153 243.099 135.452C231.539 126.987 217.295 122 201.871 122ZM108 191.871C108 140.028 150.028 98 201.871 98C227.929 98 251.525 108.633 268.52 125.767L276.902 134.217L268.52 142.668C255.982 155.309 248.257 172.676 248.257 191.871C248.257 211.066 255.982 228.434 268.52 241.075L276.902 249.525L268.52 257.976C251.525 275.11 227.929 285.743 201.871 285.743C150.028 285.743 108 243.715 108 191.871Z" fill="black"/>
<path fill-rule="evenodd" clip-rule="evenodd" d="M375.781 250C390.737 235.166 399.999 214.6 399.999 191.871C399.999 146.655 363.343 110 318.127 110C272.911 110 236.256 146.655 236.256 191.871C236.256 214.6 245.518 235.166 260.473 250C275.27 235.323 295.64 226.257 318.127 226.257C340.615 226.257 360.985 235.323 375.781 250Z" fill="#61AC6B"/>
<path fill-rule="evenodd" clip-rule="evenodd" d="M318.127 122C279.538 122 248.256 153.282 248.256 191.871C248.256 207.295 253.243 221.539 261.708 233.099C277.409 221.276 296.956 214.257 318.127 214.257C339.298 214.257 358.845 221.276 374.547 233.099C383.011 221.539 387.999 207.295 387.999 191.871C387.999 153.282 356.716 122 318.127 122ZM224.256 191.871C224.256 140.028 266.283 98 318.127 98C369.971 98 411.999 140.028 411.999 191.871C411.999 217.929 401.366 241.525 384.232 258.52L375.781 266.902L367.33 258.52C354.69 245.982 337.322 238.257 318.127 238.257C298.932 238.257 281.565 245.982 268.924 258.52L260.473 266.902L252.023 258.52C234.889 241.525 224.256 217.929 224.256 191.871Z" fill="black"/>
<path fill-rule="evenodd" clip-rule="evenodd" d="M144.217 250C129.262 264.834 120 285.4 120 308.129C120 353.345 156.655 390 201.871 390C247.088 390 283.743 353.345 283.743 308.129C283.743 285.4 274.481 264.834 259.525 250C244.729 264.677 224.359 273.743 201.871 273.743C179.384 273.743 159.014 264.677 144.217 250Z" fill="#D5635B"/>
<path fill-rule="evenodd" clip-rule="evenodd" d="M259.525 233.098L267.976 241.48C285.11 258.475 295.743 282.071 295.743 308.128C295.743 359.972 253.715 401.999 201.871 401.999C150.028 401.999 108 359.972 108 308.128C108 282.071 118.633 258.475 135.767 241.48L144.217 233.098L152.668 241.48C165.309 254.018 182.676 261.742 201.871 261.742C221.066 261.742 238.434 254.018 251.075 241.48L259.525 233.098ZM145.452 266.901C136.987 278.461 132 292.705 132 308.128C132 346.717 163.282 377.999 201.871 377.999C240.46 377.999 271.743 346.717 271.743 308.128C271.743 292.705 266.755 278.461 258.291 266.901C242.589 278.723 223.042 285.742 201.871 285.742C180.701 285.742 161.153 278.723 145.452 266.901Z" fill="black"/>
<path fill-rule="evenodd" clip-rule="evenodd" d="M260 365.781C274.677 350.985 283.743 330.615 283.743 308.127C283.743 285.64 274.677 265.27 260 250.473C274.834 235.518 295.4 226.256 318.129 226.256C363.345 226.256 400 262.911 400 308.127C400 353.343 363.345 389.999 318.129 389.999C295.4 389.999 274.834 380.737 260 365.781Z" fill="#A87AB5"/>
<path fill-rule="evenodd" clip-rule="evenodd" d="M276.902 251.708C288.724 267.409 295.743 286.956 295.743 308.127C295.743 329.298 288.724 348.845 276.902 364.547C288.462 373.011 302.706 377.999 318.129 377.999C356.718 377.999 388 346.716 388 308.127C388 269.538 356.718 238.256 318.129 238.256C302.706 238.256 288.462 243.243 276.902 251.708ZM251.481 242.023C268.476 224.889 292.072 214.256 318.129 214.256C369.973 214.256 412 256.283 412 308.127C412 359.971 369.973 401.999 318.129 401.999C292.072 401.999 268.476 391.366 251.481 374.232L243.099 365.781L251.481 357.33C264.019 344.69 271.743 327.322 271.743 308.127C271.743 288.932 264.019 271.565 251.481 258.924L243.099 250.473L251.481 242.023Z" fill="black"/>
</svg>
